# xmcd
#
# Track frame offsets: 
#        150
#        13510
#        33010
#        50860
#        64810
#        79585
#        96460
#        114985
#        128260
#        147985
#
# Disc length: 2222 seconds
#
# Revision: 4
# Processed by: cddbd v1.5.1PL2 Copyright (c) Steve Scherf et al.
# Submitted via: ExactAudioCopy v0.95b4
#
DISCID=7c08ac0a
DTITLE=Hollies, The - Midas Touch, The
DYEAR=1989
DGENRE=Rock
TTITLE0=Carrie-Anne
TTITLE1=Promised Land
TTITLE2=Pick Up The Pieces Again
TTITLE3=King Midas In Reverse
TTITLE4=Long Cool Woman In A Black Dress
TTITLE5=Isn't It Nice
TTITLE6=Hold On
TTITLE7=Bus Stop
TTITLE8=He Ain't Heavy, He's My Brother
TTITLE9=Sandy
EXTD=YEAR: 1989 ID3G: 13
EXTT0=
EXTT1=
EXTT2=
EXTT3=
EXTT4=
EXTT5=
EXTT6=
EXTT7=
EXTT8=
EXTT9=
PLAYORDER=
